<?xml version="1.0" encoding="UTF-8" standalone="no"?>
<svg width="18px" height="20px" viewBox="0 0 18 20" version="1.1" xmlns="http://www.w3.org/2000/svg" xmlns:xlink="http://www.w3.org/1999/xlink">
    <!-- Generator: Sketch 39 (31667) - http://www.bohemiancoding.com/sketch -->
    <title>Shape</title>
    <desc>Created with Sketch.</desc>
    <defs></defs>
    <g id="Page-1" stroke="none" stroke-width="1" fill="none" fill-rule="evenodd" fill-opacity="0.87">
        <g id="Newsletter" transform="translate(-155.000000, -1141.000000)" fill="#000000">
            <g id="Group-6" transform="translate(60.000000, 1141.000000)">
                <path d="M109.032299,16.1795423 L107.124351,9.99970211 L112.118646,6.18138922 L105.94516,6.18138922 L104.036986,0.00178732075 L104.036419,0.000119154716 L110.210925,0.000119154716 L112.119439,6.18079345 L112.119439,6.1806743 L112.121024,6.17972106 C113.229559,9.76532479 112.087961,13.8435141 109.032299,16.1795423 L109.032299,16.1795423 L109.032299,16.1795423 Z M99.0414451,16.1795423 L99.0398598,16.1807339 L104.035513,20 L109.032299,16.1796615 L104.037099,12.3602762 L99.0414451,16.1795423 L99.0414451,16.1795423 L99.0414451,16.1795423 Z M95.9537395,6.17984021 L95.9537395,6.17984021 C94.7870038,9.95954697 96.1413639,13.9645753 99.040426,16.1802573 L99.0408789,16.1783508 L100.949054,9.99886803 L95.9557777,6.18127007 L102.127792,6.18127007 L104.03608,0.00166816603 L104.036533,0 L97.8616877,0 L95.9537395,6.17984021 L95.9537395,6.17984021 L95.9537395,6.17984021 Z" id="Shape"></path>
            </g>
        </g>
    </g>
</svg>